HIERARCHY
ROOT Hips
{
	OFFSET 0.000000 0.000000 0.000000 
	CHANNELS 6 Xposition Yposition Zposition Zrotation Yrotation Xrotation
	JOINT LeftUpLeg
	{
		OFFSET 1.363060 -1.794630 0.839290 
		CHANNELS 3 Zrotation Yrotation Xrotation
		JOINT LeftLeg
		{
			OFFSET 2.448110 -6.726130 0.000000 
			CHANNELS 3 Zrotation Yrotation Xrotation
			JOINT LeftFoot
			{
				OFFSET 2.562200 -7.039590 0.000000 
				CHANNELS 3 Zrotation Yrotation Xrotation
				JOINT LeftToeBase
				{
					OFFSET 0.157640 -0.433110 2.322550 
					CHANNELS 3 Zrotation Yrotation Xrotation
					End Site
					{
						OFFSET 0.000000 0.000000 0.000000 
					}
				}
			}
		}
	}
	JOINT RightUpLeg
	{
		OFFSET -1.305520 -1.794630 0.839290 
		CHANNELS 3 Zrotation Yrotation Xrotation
		JOINT RightLeg
		{
			OFFSET -2.542530 -6.985550 0.000000 
			CHANNELS 3 Zrotation Yrotation Xrotation
			JOINT RightFoot
			{
				OFFSET -2.568260 -7.056230 0.000000 
				CHANNELS 3 Zrotation Yrotation Xrotation
				JOINT RightToeBase
				{
					OFFSET -0.164730 -0.452590 2.363150 
					CHANNELS 3 Zrotation Yrotation Xrotation
					End Site
					{
						OFFSET 0.000000 0.000000 0.000000 
					}
				}
			}
		}
	}
	JOINT Spine
	{
		OFFSET 0.028270 2.035590 -0.193380 
		CHANNELS 3 Zrotation Yrotation Xrotation
		JOINT Spine1
		{
			OFFSET 0.056720 2.048850 -0.042750 
			CHANNELS 3 Zrotation Yrotation Xrotation
			JOINT Neck1
			{
				OFFSET -0.054170 1.746240 0.172020 
				CHANNELS 3 Zrotation Yrotation Xrotation
				JOINT Head
				{
					OFFSET 0.104070 1.761360 -0.123970 
					CHANNELS 3 Zrotation Yrotation Xrotation
					End Site
					{
						OFFSET 0.000000 0.000000 0.000000 
					}
				}
			}
			JOINT LeftArm
			{
				OFFSET 3.362410 1.200890 -0.311210 
				CHANNELS 3 Zrotation Yrotation Xrotation
				JOINT LeftForeArm
				{
					OFFSET 4.983000 -0.000000 -0.000000 
					CHANNELS 3 Zrotation Yrotation Xrotation
					JOINT LeftHand
					{
						OFFSET 3.483560 -0.000000 -0.000000 
						CHANNELS 3 Zrotation Yrotation Xrotation
						JOINT LeftHandIndex1
						{
							OFFSET 0.715260 -0.000000 -0.000000 
							CHANNELS 3 Zrotation Yrotation Xrotation
							End Site
							{
								OFFSET 0.000000 0.000000 0.000000 
							}
						}
					}
				}
			}
			JOINT RightArm
			{
				OFFSET -3.136600 1.374050 -0.404650 
				CHANNELS 3 Zrotation Yrotation Xrotation
				JOINT RightForeArm
				{
					OFFSET -5.241900 -0.000000 -0.000000 
					CHANNELS 3 Zrotation Yrotation Xrotation
					JOINT RightHand
					{
						OFFSET -3.444170 -0.000000 -0.000000 
						CHANNELS 3 Zrotation Yrotation Xrotation
						JOINT RightHandIndex1
						{
							OFFSET -0.622530 -0.000000 -0.000000 
							CHANNELS 3 Zrotation Yrotation Xrotation
							End Site
							{
								OFFSET 0.000000 0.000000 0.000000 
							}
						}
					}
				}
			}
		}
	}
}
MOTION
Frames: 13
Frame Time: 0.041667
-28.981625 14.916409 7.423740 -178.880574 53.034251 -156.487032 -17.733158 -0.941295 -36.000439 16.113576 21.365437 79.260021 3.374040 -18.675750 -10.217323 1.394400 -7.470500 -21.117000 14.921865 -3.977489 -28.732550 -20.898941 -20.923726 92.453898 0.434760 -2.863918 -3.275404 -1.129400 6.749800 -18.976100 -0.345275 -0.391593 -1.139483 4.535885 0.569217 3.733048 33.866038 -43.504850 -18.123801 37.707800 -13.496000 12.169900 -79.891537 -14.388420 14.089382 58.002637 -54.620757 -38.264066 0.257441 -1.052073 160.017162 -7.125000 0.000000 0.000000 89.334533 6.561589 -2.082637 -97.758081 60.114025 -75.019960 1.176778 0.605615 -53.530341 7.125000 0.000000 0.000000 
-28.689352 14.913835 7.169513 -178.549791 52.201674 -156.649681 -17.526560 -0.862326 -33.443522 15.561703 21.121239 77.753405 3.357349 -18.253248 -9.872605 1.144800 -6.794300 -19.107500 14.845224 -2.646677 -32.173141 -22.083147 -21.121500 95.891850 0.479102 -3.756602 -6.396744 -1.510500 7.761900 -21.993100 -0.232554 -0.908471 -1.157548 5.212786 0.193843 3.864828 33.070114 -42.511960 -16.861367 36.918200 -13.257200 12.496000 -79.719832 -18.329481 14.194879 60.344527 -54.908580 -40.324757 0.247584 -1.010215 161.070358 -7.125000 0.000000 0.000000 89.906914 6.309906 -1.299394 -101.272385 60.008891 -77.550062 1.129296 0.530405 -54.803809 7.125000 0.000000 0.000000 
-28.395625 14.901974 6.912152 -178.184438 51.650430 -156.916143 -17.300913 -0.435058 -30.851250 14.971681 20.841505 76.139531 3.318093 -18.059777 -9.187224 0.833000 -5.822400 -16.269900 14.610422 -1.046519 -34.948603 -22.841198 -21.297521 98.048688 0.728701 -5.433130 -8.208514 -2.096800 9.064800 -25.998200 -0.119764 -1.324170 -1.175812 6.034168 -0.162223 3.938215 32.318919 -41.495284 -15.697716 36.494000 -13.009700 12.741100 -79.542106 -21.690528 14.252358 62.898054 -55.219559 -42.632270 0.236645 -0.964852 162.189374 -7.125000 0.000000 0.000000 90.358469 6.563331 -0.148105 -104.305974 59.737642 -79.677817 1.111703 0.467772 -54.355825 7.125000 0.000000 0.000000 
-28.095856 14.892799 6.642930 -178.127227 51.318704 -157.549707 -17.305093 0.142670 -28.077180 14.296457 20.518656 74.303288 3.265145 -17.917494 -8.330812 0.628500 -5.072900 -14.116700 13.812034 0.711931 -37.665255 -23.472480 -21.468375 99.809325 0.671411 -5.414568 -9.039658 -1.378500 7.429700 -20.994900 0.043000 -1.794517 -1.244381 6.987133 -0.578479 3.839630 31.365720 -40.083125 -14.308146 35.968700 -12.595700 12.871900 -79.317294 -24.592334 13.856805 65.346411 -55.434516 -44.948619 0.236532 -0.904231 163.084881 -7.125000 0.000000 0.000000 90.559160 7.307425 1.196549 -106.834503 59.379750 -81.459466 1.076178 0.410351 -53.449314 7.125000 0.000000 0.000000 
-27.793513 14.881162 6.356364 -178.390677 50.896529 -158.484590 -17.573248 0.548049 -25.049749 13.568479 20.150727 72.331370 3.203846 -17.551940 -7.573647 0.360800 -3.859000 -10.680200 12.550637 2.331324 -40.437221 -23.879452 -21.683871 100.870099 0.486248 -4.900156 -10.090777 -0.871500 5.952200 -16.645700 0.115401 -2.654797 -1.302429 7.171898 -1.035627 3.761207 30.541506 -38.710573 -12.900571 35.279300 -12.292500 13.248900 -78.277856 -26.812676 12.941079 67.394687 -55.563560 -47.048504 0.293355 -0.840797 163.665987 -7.125000 0.000000 0.000000 91.135121 8.172447 2.917532 -109.591082 58.833105 -83.393089 1.052381 0.304099 -51.787793 7.125000 0.000000 0.000000 
-27.485687 14.868853 6.055700 -178.675153 50.773795 -159.385359 -17.943577 0.884107 -22.054285 12.779007 19.762133 70.139780 3.186550 -17.575745 -6.953252 0.248300 -3.206700 -8.854700 11.053877 4.155336 -43.251174 -24.015359 -21.952788 101.079092 0.426295 -4.699557 -10.329328 -0.409900 4.109900 -11.386000 0.266368 -3.129660 -1.338208 8.522288 -1.531490 3.872426 29.599709 -37.236545 -11.500827 34.388200 -11.820800 13.421700 -78.061957 -29.019542 12.139190 68.644674 -55.524406 -48.404272 0.254707 -0.808866 164.372320 -7.125000 0.000000 0.000000 90.585862 9.648976 4.608654 -111.855384 58.372137 -85.023665 0.993101 0.269367 -49.661412 7.125000 0.000000 0.000000 
-27.181777 14.849719 5.736237 -178.729423 50.732137 -159.841878 -18.318944 1.023683 -19.245812 11.958511 19.333097 67.812297 3.182262 -17.328365 -6.628273 0.710500 -5.387000 -15.015900 9.363618 6.009665 -46.482195 -23.976271 -22.287134 100.776072 0.382158 -5.093693 -11.857636 -0.662100 5.204200 -14.491900 0.368703 -3.794115 -1.447716 9.022713 -1.950212 3.490724 28.457538 -35.408926 -9.949002 33.561500 -11.268600 13.227300 -77.167240 -30.330439 11.432071 69.012403 -55.330562 -48.886877 0.237425 -0.790833 164.615596 -7.125000 0.000000 0.000000 90.600190 11.035685 6.458863 -114.309773 57.692515 -86.800155 0.960283 0.204726 -47.481921 7.125000 0.000000 0.000000 
-26.870147 14.820514 5.405808 -178.474852 51.123703 -160.160639 -18.765655 1.693523 -16.112084 11.103363 18.823563 65.331298 3.141087 -16.141154 -6.745867 0.820300 -5.778800 -16.144000 7.630630 8.100074 -49.630519 -23.766556 -22.668484 99.967771 0.447819 -5.724801 -12.632698 -0.938600 6.170700 -17.280600 0.470052 -4.429122 -1.572182 9.563616 -2.374717 3.074907 27.332723 -33.430952 -8.349103 32.467300 -10.658300 13.250500 -75.954541 -30.995827 10.363035 68.972518 -55.075909 -49.116693 0.251785 -0.817918 164.421446 -7.125000 0.000000 0.000000 90.795563 12.648207 9.040654 -117.019267 56.805407 -88.728579 0.927871 0.134186 -44.980509 7.125000 0.000000 0.000000 
-26.553593 14.777993 5.046622 -178.017994 51.821033 -159.829077 -19.359617 2.265722 -13.289787 10.180478 18.285575 62.650276 3.010606 -14.594040 -6.592210 1.010400 -6.395700 -17.936900 5.731085 10.153963 -53.226885 -23.347075 -23.093425 98.537711 0.552210 -6.194001 -12.595937 -1.324600 7.288800 -20.573700 0.600728 -4.689689 -1.646536 10.520814 -2.738043 3.078128 26.072615 -31.458749 -6.798058 31.335800 -9.971600 12.965400 -75.585106 -31.188931 9.982816 69.006971 -54.987882 -49.238796 0.213303 -0.799081 164.444662 -7.125000 0.000000 0.000000 90.588386 14.457701 11.528481 -119.704913 55.901089 -90.647551 0.872864 0.079652 -42.093200 7.125000 0.000000 0.000000 
-26.224395 14.727864 4.658119 -177.431478 52.827930 -159.086918 -20.127344 2.813387 -10.639073 9.189346 17.676103 59.732472 2.826291 -13.283809 -5.883899 0.979600 -6.300400 -17.658500 3.671118 12.076002 -56.901500 -22.649245 -23.538213 96.330694 0.537008 -5.898053 -11.998949 -2.066000 9.002200 -25.802200 0.677386 -4.920944 -1.747142 10.785716 -2.982249 3.046705 24.982592 -29.754704 -5.444187 29.815000 -9.360100 12.842800 -75.263911 -30.521486 10.023891 69.521015 -55.103151 -49.794316 0.211827 -0.837755 164.538939 -7.125000 0.000000 0.000000 90.823465 16.357097 14.177038 -122.346100 54.835216 -92.549882 0.833935 0.002175 -39.143110 7.125000 0.000000 0.000000 
-25.877741 14.672252 4.246118 -176.600156 54.193963 -157.782807 -21.040859 3.403282 -8.255392 8.207349 17.036287 56.792985 2.574821 -11.908650 -4.721424 0.924900 -6.126900 -17.153100 1.620697 13.844523 -60.636754 -21.715587 -23.960740 93.540076 0.113827 -3.692961 -11.326641 -2.405800 9.664500 -27.897100 0.753560 -5.002256 -1.828000 11.044156 -3.200037 3.341052 23.831890 -27.968234 -4.087182 28.059000 -8.645200 12.613100 -75.415662 -29.246144 10.224800 69.549720 -55.243933 -49.795504 0.184422 -0.836448 164.808034 -7.125000 0.000000 0.000000 90.887023 18.581254 17.493287 -124.422912 53.875797 -93.993445 0.808726 -0.065979 -36.000398 7.125000 0.000000 0.000000 
-25.504344 14.639131 3.819794 -173.601808 56.256159 -153.253030 -21.303403 4.223509 -7.460666 7.273441 16.406625 53.930374 2.234286 -10.238992 -2.683006 0.813300 -5.754800 -16.074500 0.187836 16.562479 -65.890973 -20.217088 -24.480656 89.321321 -0.127758 -1.869055 -9.589319 -3.266700 11.114700 -32.667700 0.745262 -4.648618 -1.909920 10.909980 -3.198987 4.066432 22.587580 -26.181353 -2.683812 26.089900 -7.904600 12.400800 -75.641320 -27.266970 10.558649 69.021789 -55.390563 -49.210229 0.106897 -0.845960 165.210327 -7.125000 0.000000 0.000000 91.278243 20.943353 21.445943 -125.843476 53.110300 -94.891839 0.802334 -0.163949 -32.602314 7.125000 0.000000 0.000000 
-25.145158 14.591687 3.397163 -170.101699 57.662159 -148.545043 -21.305582 4.202110 -6.552382 6.459646 15.821355 51.397332 1.791861 -8.149349 0.028369 0.689000 -5.306800 -14.785700 -0.483664 18.299115 -69.955981 -18.558063 -24.753854 84.846048 -0.767710 1.792375 -8.621889 -3.438700 11.373500 -33.550000 0.833535 -4.292554 -1.985820 10.558198 -3.161781 4.838854 21.445749 -24.755717 -1.534760 24.153200 -7.295400 12.283600 -76.397879 -25.205460 11.361199 68.507582 -55.586447 -48.520586 0.027988 -0.846574 166.162438 -7.125000 0.000000 0.000000 91.605710 23.568967 25.611136 -126.933357 52.441763 -95.544777 0.765957 -0.274512 -29.076213 7.125000 0.000000 0.000000 
